HIERARCHY
ROOT Hips
{
  OFFSET -31.5692 30.0904 122.763
  CHANNELS 6 Xposition Yposition Zposition Zrotation Xrotation Yrotation
  JOINT LeftUpLeg
  {
    OFFSET 8.64259 1.95398 -2.38835
    CHANNELS 3 Zrotation Xrotation Yrotation
    JOINT LeftLeg
    {
      OFFSET 43.7702 0 0
      CHANNELS 3 Zrotation Xrotation Yrotation
      JOINT LeftFoot
      {
        OFFSET 40.6238 0 0
        CHANNELS 3 Zrotation Xrotation Yrotation
        JOINT LeftToeBase
        {
          OFFSET 12.7242 0 0
          CHANNELS 3 Zrotation Xrotation Yrotation
          End Site
          {
            OFFSET 0 0 0
          }
        }
      }
    }
  }
  JOINT RightUpLeg
  {
    OFFSET -8.2249 1.95398 -2.59336
    CHANNELS 3 Zrotation Xrotation Yrotation
    JOINT RightLeg
    {
      OFFSET 43.5653 0 0
      CHANNELS 3 Zrotation Xrotation Yrotation
      JOINT RightFoot
      {
        OFFSET 40.6238 0 0
        CHANNELS 3 Zrotation Xrotation Yrotation
        JOINT RightToeBase
        {
          OFFSET 12.7242 0 0
          CHANNELS 3 Zrotation Xrotation Yrotation
          End Site
          {
            OFFSET 0 0 0
          }
        }
      }
    }
  }
  JOINT Spine
  {
    OFFSET 0.165834 0.87714 6.61349
    CHANNELS 3 Zrotation Xrotation Yrotation
    JOINT Spine1
    {
      OFFSET 7.38963 1.71661e-005 0
      CHANNELS 3 Zrotation Xrotation Yrotation
      JOINT Spine2
      {
        OFFSET 11.9445 1.14441e-005 0
        CHANNELS 3 Zrotation Xrotation Yrotation
        JOINT Spine3
        {
          OFFSET 14.7254 4.19617e-005 0
          CHANNELS 3 Zrotation Xrotation Yrotation
          JOINT Spine4
          {
            OFFSET 10.9679 0 0
            CHANNELS 3 Zrotation Xrotation Yrotation
            JOINT RightShoulder
            {
              OFFSET 2.46616 -1.6653 3.69651
              CHANNELS 3 Zrotation Xrotation Yrotation
              JOINT RightArm
              {
                OFFSET 13.0012 0 0
                CHANNELS 3 Zrotation Xrotation Yrotation
                JOINT RightForeArm
                {
                  OFFSET 28.7848 1.62311e-005 0
                  CHANNELS 3 Zrotation Xrotation Yrotation
                  JOINT RightHand
                  {
                    OFFSET 26.5688 1.62095e-005 0
                    CHANNELS 3 Zrotation Xrotation Yrotation
                    End Site
                    {
                      OFFSET 0 0 0
                    }
                  }
                }
              }
            }
            JOINT LeftShoulder
            {
              OFFSET 2.38034 -1.29275 -3.7523
              CHANNELS 3 Zrotation Xrotation Yrotation
              JOINT LeftArm
              {
                OFFSET 16.3182 6.07031e-005 0
                CHANNELS 3 Zrotation Xrotation Yrotation
                JOINT LeftForeArm
                {
                  OFFSET 27.0901 0 0
                  CHANNELS 3 Zrotation Xrotation Yrotation
                  JOINT LeftHand
                  {
                    OFFSET 24.5451 1.51738e-005 0
                    CHANNELS 3 Zrotation Xrotation Yrotation
                    End Site
                    {
                      OFFSET 0 0 0
                    }
                  }
                }
              }
            }
            JOINT Neck
            {
              OFFSET 5.0226 -0.0266342 0
              CHANNELS 3 Zrotation Xrotation Yrotation
              JOINT Head
              {
                OFFSET 6.69364 2.86102e-005 0
                CHANNELS 3 Zrotation Xrotation Yrotation
                End Site
                {
                  OFFSET 0 0 0
                }
              }
            }
          }
        }
      }
    }
  }
}
MOTION
Frames:	6
Frame Time:	0.0416667
37.2108 35.5397 6.66967 -136.095 -81.7457 -135.029 -36.1041 55.1877 -13.3464 -148.35 -11.0903 8.69409 106.591 25.0325 -3.58269 14.3689 -12.4566 10.1267 58.3833 46.2532 -174.955 -144.015 24.4574 -9.03578 99.4604 -27.5042 -8.02086 30.5063 -1.60567 4.44588 0.882395 12.9071 -90.3061 1.06202 1.64519 -0.538794 -10.608 1.61988 -0.610714 -33.1515 1.73103 -0.019299 -13.1389 1.73104 -0.0192963 87.6103 -20.8859 -116.188 14.9576 -2.19491 -51.005 4.95042 -58.4176 -12.1721 -41.3268 -8.8383 14.0299 -94.3135 -36.4641 67.8773 -8.60698 9.83826 -71.6069 -5.59784 50.5966 -0.0129577 18.6916 2.50182 5.31608 21.7145 -3.90479 -2.54885 -2.4234 -2.90452 2.11886 
37.3273 35.5086 6.53437 -146.034 -82.0764 -144.539 -38.3813 56.2617 -13.6158 -147.922 -12.3033 8.63778 106.946 24.996 -4.35572 13.6332 -12.854 9.97024 58.9787 46.6985 -177.431 -144.283 23.7245 -8.99797 102.449 -28.8606 -6.49729 27.8226 -0.0413917 2.30152 0.795001 12.964 -90.4176 0.948802 1.42888 -0.761132 -10.7216 1.39401 -0.823306 -33.2627 1.59156 -0.296429 -13.25 1.59156 -0.29642 87.6733 -20.6691 -116.178 13.9099 -2.723 -52.0805 9.07416 -58.3157 -8.62253 -39.7178 -8.09042 12.7995 -94.2653 -36.1366 67.8348 -8.08805 10.3229 -71.5851 -5.5113 48.395 -0.0123875 23.261 2.10594 3.58582 22.326 -2.52365 -1.139 -1.52615 -2.05106 -0.276423 
37.3213 35.4834 6.53899 -145.912 -82.0357 -144.503 -38.2972 56.2858 -13.6153 -148.056 -12.1594 8.6121 106.791 24.5864 -4.95738 14.0443 -13.3758 11.386 58.8773 46.7104 -177.214 -144.316 23.7078 -8.98991 102.132 -28.744 -6.73738 28.0693 -0.158448 2.35239 0.786852 12.9548 -90.3944 0.967137 1.42139 -0.716638 -10.7033 1.38847 -0.778521 -33.2444 1.57104 -0.256245 -13.2317 1.57104 -0.256247 87.4824 -20.8563 -116.491 14.146 -2.55483 -51.2897 6.986 -57.2459 -10.6191 -35.0657 -6.75464 11.5086 -94.2801 -35.9132 67.7237 -9.21764 9.86434 -71.256 -5.10978 51.0802 -0.0130926 18.1573 2.08541 3.1995 21.9508 -2.71952 -1.67267 -1.28767 -2.06211 0.184522 
37.3366 35.5142 6.55183 -145.824 -81.9785 -144.327 -39.1559 56.3639 -12.7423 -147.627 -12.5052 8.69779 108.74 26.7979 -3.55567 13.0796 -12.5749 8.8559 58.9639 46.7371 -177.311 -144.271 23.8413 -9.00319 102.127 -28.6431 -6.53978 28.0929 -0.157421 2.29699 0.801527 12.962 -90.4119 0.952937 1.4441 -0.749574 -10.7175 1.40971 -0.812419 -33.2587 1.6026 -0.280806 -13.246 1.6026 -0.280819 87.5151 -20.733 -116.493 15.1682 -2.10032 -50.6965 4.92666 -57.5153 -12.0519 -31.7317 -5.71525 9.89621 -94.3445 -36.1311 67.6967 -8.92148 9.86433 -71.3782 -5.27843 51.2405 -0.0131382 18.6838 2.55435 5.58887 22.0162 -2.67824 -1.49951 -1.23784 -2.07858 0.160711 
37.3258 35.4779 6.55975 -145.521 -81.9351 -144.097 -38.7885 56.3155 -13.0284 -147.852 -12.3502 8.66757 108.036 25.9954 -4.02181 14.6248 -12.4155 10.356 59.0397 46.7462 -177.252 -144.291 23.7674 -8.98367 102.016 -28.7629 -6.89901 28.225 -0.248237 2.45521 0.801838 12.9675 -90.4079 0.942051 1.44621 -0.741556 -10.7284 1.41217 -0.8045 -33.2696 1.60221 -0.272545 -13.257 1.6022 -0.272545 87.5807 -20.7254 -116.351 15.024 -2.25528 -50.8058 4.64815 -59.3916 -12.5505 -31.6015 -5.93224 10.613 -94.3668 -36.1435 67.663 -8.95496 9.81776 -71.397 -5.29547 50.9793 -0.0130642 18.6033 2.50443 5.30927 22.1672 -2.64091 -1.44354 -1.30172 -2.05725 0.239517 
37.3153 35.4948 6.53739 -146.046 -82.0296 -144.513 -38.2376 56.4026 -13.7116 -148.012 -12.2073 8.60325 106.839 24.6551 -4.86466 15.7143 -12.4138 11.6717 59.0678 46.5978 -177.405 -144.245 23.764 -9.01877 102.15 -28.847 -6.84658 28.0495 -0.151541 2.36138 0.79598 12.9667 -90.4378 0.943578 1.42329 -0.800544 -10.7269 1.38668 -0.862427 -33.2678 1.59807 -0.335691 -13.2551 1.59807 -0.335697 87.6473 -20.5297 -116.32 15.5406 -2.01509 -50.8724 4.75423 -59.409 -12.0433 -34.5245 -6.81161 11.9161 -94.4292 -36.1965 67.5761 -8.93515 9.76163 -71.3521 -5.2447 51.2716 -0.0131471 18.3745 2.50262 5.3428 22.1431 -2.62802 -1.04759 -1.2767 -2.1839 -0.166595 
